<mxfile host="app.diagrams.net" modified="2022-09-13T11:20:09.654Z" agent="5.0 (Windows NT 10.0; Win64; x64) AppleWebKit/537.36 (KHTML, like Gecko) Chrome/105.0.0.0 Safari/537.36" etag="aorWafdOHfvnMXYzG22s" version="20.3.0" type="github">
  <diagram id="gWhw86rSgqx6qVcFS7b2" name="Page-1">
    <mxGraphModel dx="2523" dy="939" grid="1" gridSize="10" guides="1" tooltips="1" connect="1" arrows="1" fold="1" page="1" pageScale="1" pageWidth="850" pageHeight="1100" math="0" shadow="0">
      <root>
        <mxCell id="0" />
        <mxCell id="1" parent="0" />
        <mxCell id="UdV3pHExxaVHsLQPr3IR-1" value="Rickard Stark" style="rounded=0;whiteSpace=wrap;html=1;fillColor=#d5e8d4;strokeColor=#82b366;" parent="1" vertex="1">
          <mxGeometry x="100" y="80" width="100" height="30" as="geometry" />
        </mxCell>
        <mxCell id="UdV3pHExxaVHsLQPr3IR-2" value="Lyarra Stark" style="rounded=0;whiteSpace=wrap;html=1;fillColor=#f8cecc;strokeColor=#b85450;" parent="1" vertex="1">
          <mxGeometry x="330" y="80" width="100" height="30" as="geometry" />
        </mxCell>
        <mxCell id="UdV3pHExxaVHsLQPr3IR-4" value="Ned Stark" style="rounded=0;whiteSpace=wrap;html=1;fillColor=#d5e8d4;strokeColor=#82b366;" parent="1" vertex="1">
          <mxGeometry x="80" y="160" width="100" height="30" as="geometry" />
        </mxCell>
        <mxCell id="UdV3pHExxaVHsLQPr3IR-5" value="Brandon Stark" style="rounded=0;whiteSpace=wrap;html=1;fillColor=#d5e8d4;strokeColor=#82b366;" parent="1" vertex="1">
          <mxGeometry x="200" y="160" width="100" height="30" as="geometry" />
        </mxCell>
        <mxCell id="UdV3pHExxaVHsLQPr3IR-6" value="Benjen Stark" style="rounded=0;whiteSpace=wrap;html=1;fillColor=#d5e8d4;strokeColor=#82b366;" parent="1" vertex="1">
          <mxGeometry x="325" y="160" width="100" height="30" as="geometry" />
        </mxCell>
        <mxCell id="UdV3pHExxaVHsLQPr3IR-7" value="Lyanna Stark" style="rounded=0;whiteSpace=wrap;html=1;fillColor=#f8cecc;strokeColor=#b85450;" parent="1" vertex="1">
          <mxGeometry x="440" y="160" width="100" height="30" as="geometry" />
        </mxCell>
        <mxCell id="UdV3pHExxaVHsLQPr3IR-8" value="Catelyn Stark" style="rounded=0;whiteSpace=wrap;html=1;fillColor=#f8cecc;strokeColor=#b85450;" parent="1" vertex="1">
          <mxGeometry x="-110" y="160" width="100" height="30" as="geometry" />
        </mxCell>
        <mxCell id="UdV3pHExxaVHsLQPr3IR-9" value="Robb Stark" style="rounded=0;whiteSpace=wrap;html=1;fillColor=#d5e8d4;strokeColor=#82b366;" parent="1" vertex="1">
          <mxGeometry x="-200" y="330" width="100" height="30" as="geometry" />
        </mxCell>
        <mxCell id="UdV3pHExxaVHsLQPr3IR-10" value="Rickon Stark" style="rounded=0;whiteSpace=wrap;html=1;fillColor=#d5e8d4;strokeColor=#82b366;" parent="1" vertex="1">
          <mxGeometry x="300" y="330" width="100" height="30" as="geometry" />
        </mxCell>
        <mxCell id="UdV3pHExxaVHsLQPr3IR-11" value="Bran Stark" style="rounded=0;whiteSpace=wrap;html=1;fillColor=#d5e8d4;strokeColor=#82b366;" parent="1" vertex="1">
          <mxGeometry x="190" y="330" width="100" height="30" as="geometry" />
        </mxCell>
        <mxCell id="UdV3pHExxaVHsLQPr3IR-12" value="Sansa Stark" style="rounded=0;whiteSpace=wrap;html=1;fillColor=#f8cecc;strokeColor=#b85450;" parent="1" vertex="1">
          <mxGeometry x="-60" y="330" width="100" height="30" as="geometry" />
        </mxCell>
        <mxCell id="UdV3pHExxaVHsLQPr3IR-13" value="Arya Stark" style="rounded=0;whiteSpace=wrap;html=1;fillColor=#f8cecc;strokeColor=#b85450;" parent="1" vertex="1">
          <mxGeometry x="70" y="330" width="100" height="30" as="geometry" />
        </mxCell>
        <mxCell id="UdV3pHExxaVHsLQPr3IR-15" value="" style="endArrow=none;html=1;rounded=0;exitDx=0;exitDy=0;startArrow=none;" parent="1" source="8lqG5mRK_3kb5YTH3_iG-4" target="UdV3pHExxaVHsLQPr3IR-4" edge="1">
          <mxGeometry width="50" height="50" relative="1" as="geometry">
            <mxPoint x="160" y="280" as="sourcePoint" />
            <mxPoint x="210" y="230" as="targetPoint" />
          </mxGeometry>
        </mxCell>
        <mxCell id="dijpgHo0SCxr4SRcyPmW-4" value="" style="shape=waypoint;sketch=0;fillStyle=solid;size=6;pointerEvents=1;points=[];fillColor=none;resizable=0;rotatable=0;perimeter=centerPerimeter;snapToPoint=1;" parent="1" vertex="1">
          <mxGeometry x="220" y="75" width="40" height="40" as="geometry" />
        </mxCell>
        <mxCell id="dijpgHo0SCxr4SRcyPmW-7" value="" style="endArrow=none;html=1;rounded=0;entryX=0;entryY=0.5;entryDx=0;entryDy=0;exitX=1;exitY=0.5;exitDx=0;exitDy=0;" parent="1" source="UdV3pHExxaVHsLQPr3IR-1" target="UdV3pHExxaVHsLQPr3IR-2" edge="1">
          <mxGeometry width="50" height="50" relative="1" as="geometry">
            <mxPoint x="140" y="240" as="sourcePoint" />
            <mxPoint x="190" y="190" as="targetPoint" />
          </mxGeometry>
        </mxCell>
        <mxCell id="dijpgHo0SCxr4SRcyPmW-8" value="" style="endArrow=none;html=1;rounded=0;exitX=0.5;exitY=0;exitDx=0;exitDy=0;" parent="1" source="UdV3pHExxaVHsLQPr3IR-4" target="dijpgHo0SCxr4SRcyPmW-4" edge="1">
          <mxGeometry width="50" height="50" relative="1" as="geometry">
            <mxPoint x="140" y="240" as="sourcePoint" />
            <mxPoint x="190" y="190" as="targetPoint" />
          </mxGeometry>
        </mxCell>
        <mxCell id="dijpgHo0SCxr4SRcyPmW-9" value="" style="endArrow=none;html=1;rounded=0;exitX=0.375;exitY=0.001;exitDx=0;exitDy=0;exitPerimeter=0;" parent="1" source="UdV3pHExxaVHsLQPr3IR-5" target="dijpgHo0SCxr4SRcyPmW-4" edge="1">
          <mxGeometry width="50" height="50" relative="1" as="geometry">
            <mxPoint x="140" y="240" as="sourcePoint" />
            <mxPoint x="190" y="190" as="targetPoint" />
          </mxGeometry>
        </mxCell>
        <mxCell id="8lqG5mRK_3kb5YTH3_iG-2" value="" style="endArrow=none;html=1;rounded=0;exitX=0.324;exitY=0.002;exitDx=0;exitDy=0;exitPerimeter=0;entryX=0.515;entryY=0.443;entryDx=0;entryDy=0;entryPerimeter=0;" parent="1" source="UdV3pHExxaVHsLQPr3IR-6" target="dijpgHo0SCxr4SRcyPmW-4" edge="1">
          <mxGeometry width="50" height="50" relative="1" as="geometry">
            <mxPoint x="220" y="190" as="sourcePoint" />
            <mxPoint x="240" y="100" as="targetPoint" />
          </mxGeometry>
        </mxCell>
        <mxCell id="8lqG5mRK_3kb5YTH3_iG-3" value="" style="endArrow=none;html=1;rounded=0;entryX=0.524;entryY=0.406;entryDx=0;entryDy=0;entryPerimeter=0;exitX=0.3;exitY=0;exitDx=0;exitDy=0;exitPerimeter=0;" parent="1" source="UdV3pHExxaVHsLQPr3IR-7" target="dijpgHo0SCxr4SRcyPmW-4" edge="1">
          <mxGeometry width="50" height="50" relative="1" as="geometry">
            <mxPoint x="220" y="190" as="sourcePoint" />
            <mxPoint x="240" y="100" as="targetPoint" />
          </mxGeometry>
        </mxCell>
        <mxCell id="8lqG5mRK_3kb5YTH3_iG-4" value="" style="shape=waypoint;sketch=0;fillStyle=solid;size=6;pointerEvents=1;points=[];fillColor=none;resizable=0;rotatable=0;perimeter=centerPerimeter;snapToPoint=1;" parent="1" vertex="1">
          <mxGeometry x="20" y="155" width="40" height="40" as="geometry" />
        </mxCell>
        <mxCell id="8lqG5mRK_3kb5YTH3_iG-5" value="" style="endArrow=none;html=1;rounded=0;exitX=1;exitY=0.5;exitDx=0;exitDy=0;entryX=0.54;entryY=0.451;entryDx=0;entryDy=0;entryPerimeter=0;" parent="1" source="UdV3pHExxaVHsLQPr3IR-8" target="8lqG5mRK_3kb5YTH3_iG-4" edge="1">
          <mxGeometry width="50" height="50" relative="1" as="geometry">
            <mxPoint x="50" y="175" as="sourcePoint" />
            <mxPoint x="40" y="180" as="targetPoint" />
          </mxGeometry>
        </mxCell>
        <mxCell id="8lqG5mRK_3kb5YTH3_iG-7" value="" style="endArrow=none;html=1;rounded=0;exitX=0.5;exitY=0;exitDx=0;exitDy=0;" parent="1" source="UdV3pHExxaVHsLQPr3IR-13" target="8lqG5mRK_3kb5YTH3_iG-4" edge="1">
          <mxGeometry width="50" height="50" relative="1" as="geometry">
            <mxPoint x="170" y="260" as="sourcePoint" />
            <mxPoint x="220" y="210" as="targetPoint" />
          </mxGeometry>
        </mxCell>
        <mxCell id="8lqG5mRK_3kb5YTH3_iG-8" value="" style="endArrow=none;html=1;rounded=0;entryX=0.75;entryY=0.375;entryDx=0;entryDy=0;entryPerimeter=0;exitX=0.5;exitY=0;exitDx=0;exitDy=0;" parent="1" source="UdV3pHExxaVHsLQPr3IR-11" target="8lqG5mRK_3kb5YTH3_iG-4" edge="1">
          <mxGeometry width="50" height="50" relative="1" as="geometry">
            <mxPoint x="160" y="270" as="sourcePoint" />
            <mxPoint x="210" y="220" as="targetPoint" />
          </mxGeometry>
        </mxCell>
        <mxCell id="8lqG5mRK_3kb5YTH3_iG-9" value="" style="endArrow=none;html=1;rounded=0;exitX=0.556;exitY=0.403;exitDx=0;exitDy=0;exitPerimeter=0;entryX=0.45;entryY=0.016;entryDx=0;entryDy=0;entryPerimeter=0;" parent="1" source="8lqG5mRK_3kb5YTH3_iG-4" target="UdV3pHExxaVHsLQPr3IR-10" edge="1">
          <mxGeometry width="50" height="50" relative="1" as="geometry">
            <mxPoint x="170" y="260" as="sourcePoint" />
            <mxPoint x="220" y="210" as="targetPoint" />
          </mxGeometry>
        </mxCell>
        <mxCell id="8lqG5mRK_3kb5YTH3_iG-10" value="" style="endArrow=none;html=1;rounded=0;exitX=0.444;exitY=0.515;exitDx=0;exitDy=0;exitPerimeter=0;entryX=0.5;entryY=0;entryDx=0;entryDy=0;" parent="1" source="8lqG5mRK_3kb5YTH3_iG-4" target="UdV3pHExxaVHsLQPr3IR-9" edge="1">
          <mxGeometry width="50" height="50" relative="1" as="geometry">
            <mxPoint x="170" y="260" as="sourcePoint" />
            <mxPoint x="220" y="210" as="targetPoint" />
          </mxGeometry>
        </mxCell>
        <mxCell id="8lqG5mRK_3kb5YTH3_iG-11" value="" style="endArrow=none;html=1;rounded=0;exitX=0.5;exitY=0;exitDx=0;exitDy=0;" parent="1" source="UdV3pHExxaVHsLQPr3IR-12" edge="1">
          <mxGeometry width="50" height="50" relative="1" as="geometry">
            <mxPoint x="-150" y="260" as="sourcePoint" />
            <mxPoint x="40" y="175" as="targetPoint" />
          </mxGeometry>
        </mxCell>
        <mxCell id="8lqG5mRK_3kb5YTH3_iG-12" value="Talisa Maegyr" style="rounded=0;whiteSpace=wrap;html=1;fillColor=#f8cecc;strokeColor=#b85450;" parent="1" vertex="1">
          <mxGeometry x="-360" y="330" width="100" height="30" as="geometry" />
        </mxCell>
        <mxCell id="8lqG5mRK_3kb5YTH3_iG-13" value="" style="endArrow=none;html=1;rounded=0;exitX=1;exitY=0.5;exitDx=0;exitDy=0;entryX=0;entryY=0.5;entryDx=0;entryDy=0;" parent="1" source="8lqG5mRK_3kb5YTH3_iG-12" target="UdV3pHExxaVHsLQPr3IR-9" edge="1">
          <mxGeometry width="50" height="50" relative="1" as="geometry">
            <mxPoint x="-150" y="260" as="sourcePoint" />
            <mxPoint x="-100" y="210" as="targetPoint" />
          </mxGeometry>
        </mxCell>
        <mxCell id="8lqG5mRK_3kb5YTH3_iG-14" value="Aerys Targaryen" style="rounded=0;whiteSpace=wrap;html=1;fillColor=#d5e8d4;strokeColor=#82b366;" parent="1" vertex="1">
          <mxGeometry x="630" y="75" width="100" height="30" as="geometry" />
        </mxCell>
        <mxCell id="8lqG5mRK_3kb5YTH3_iG-15" value="Rhaella Targaryen" style="rounded=0;whiteSpace=wrap;html=1;fillColor=#f8cecc;strokeColor=#b85450;" parent="1" vertex="1">
          <mxGeometry x="850" y="75" width="100" height="30" as="geometry" />
        </mxCell>
        <mxCell id="8lqG5mRK_3kb5YTH3_iG-16" value="Rhaegar Targaryen" style="rounded=0;whiteSpace=wrap;html=1;fillColor=#d5e8d4;strokeColor=#82b366;" parent="1" vertex="1">
          <mxGeometry x="600" y="160" width="110" height="30" as="geometry" />
        </mxCell>
        <mxCell id="8lqG5mRK_3kb5YTH3_iG-18" value="Viserys Targaryen" style="rounded=0;whiteSpace=wrap;html=1;fillColor=#d5e8d4;strokeColor=#82b366;" parent="1" vertex="1">
          <mxGeometry x="880" y="160" width="100" height="30" as="geometry" />
        </mxCell>
        <mxCell id="8lqG5mRK_3kb5YTH3_iG-19" value="Daenerys Targaryen" style="rounded=0;whiteSpace=wrap;html=1;fillColor=#f8cecc;strokeColor=#b85450;" parent="1" vertex="1">
          <mxGeometry x="1030" y="160" width="100" height="30" as="geometry" />
        </mxCell>
        <mxCell id="8lqG5mRK_3kb5YTH3_iG-20" value="" style="shape=waypoint;sketch=0;fillStyle=solid;size=6;pointerEvents=1;points=[];fillColor=none;resizable=0;rotatable=0;perimeter=centerPerimeter;snapToPoint=1;" parent="1" vertex="1">
          <mxGeometry x="750" y="70" width="40" height="40" as="geometry" />
        </mxCell>
        <mxCell id="8lqG5mRK_3kb5YTH3_iG-21" value="" style="endArrow=none;html=1;rounded=0;entryX=0;entryY=0.5;entryDx=0;entryDy=0;exitX=1;exitY=0.5;exitDx=0;exitDy=0;" parent="1" source="8lqG5mRK_3kb5YTH3_iG-14" target="8lqG5mRK_3kb5YTH3_iG-15" edge="1">
          <mxGeometry width="50" height="50" relative="1" as="geometry">
            <mxPoint x="670" y="235" as="sourcePoint" />
            <mxPoint x="720" y="185" as="targetPoint" />
          </mxGeometry>
        </mxCell>
        <mxCell id="8lqG5mRK_3kb5YTH3_iG-22" value="" style="endArrow=none;html=1;rounded=0;exitX=0.5;exitY=0;exitDx=0;exitDy=0;" parent="1" source="8lqG5mRK_3kb5YTH3_iG-16" target="8lqG5mRK_3kb5YTH3_iG-20" edge="1">
          <mxGeometry width="50" height="50" relative="1" as="geometry">
            <mxPoint x="670" y="235" as="sourcePoint" />
            <mxPoint x="720" y="185" as="targetPoint" />
          </mxGeometry>
        </mxCell>
        <mxCell id="8lqG5mRK_3kb5YTH3_iG-24" value="" style="endArrow=none;html=1;rounded=0;exitX=0.324;exitY=0.002;exitDx=0;exitDy=0;exitPerimeter=0;entryX=0.515;entryY=0.443;entryDx=0;entryDy=0;entryPerimeter=0;" parent="1" source="8lqG5mRK_3kb5YTH3_iG-18" target="8lqG5mRK_3kb5YTH3_iG-20" edge="1">
          <mxGeometry width="50" height="50" relative="1" as="geometry">
            <mxPoint x="750" y="185" as="sourcePoint" />
            <mxPoint x="770" y="95" as="targetPoint" />
          </mxGeometry>
        </mxCell>
        <mxCell id="8lqG5mRK_3kb5YTH3_iG-25" value="" style="endArrow=none;html=1;rounded=0;entryX=0.524;entryY=0.406;entryDx=0;entryDy=0;entryPerimeter=0;exitX=0.3;exitY=0;exitDx=0;exitDy=0;exitPerimeter=0;" parent="1" source="8lqG5mRK_3kb5YTH3_iG-19" target="8lqG5mRK_3kb5YTH3_iG-20" edge="1">
          <mxGeometry width="50" height="50" relative="1" as="geometry">
            <mxPoint x="750" y="185" as="sourcePoint" />
            <mxPoint x="770" y="95" as="targetPoint" />
          </mxGeometry>
        </mxCell>
        <mxCell id="8lqG5mRK_3kb5YTH3_iG-26" value="" style="endArrow=none;html=1;rounded=0;exitDx=0;exitDy=0;entryX=0;entryY=0.5;entryDx=0;entryDy=0;startArrow=none;" parent="1" source="8lqG5mRK_3kb5YTH3_iG-28" target="8lqG5mRK_3kb5YTH3_iG-16" edge="1">
          <mxGeometry width="50" height="50" relative="1" as="geometry">
            <mxPoint x="600" y="260" as="sourcePoint" />
            <mxPoint x="650" y="210" as="targetPoint" />
          </mxGeometry>
        </mxCell>
        <mxCell id="8lqG5mRK_3kb5YTH3_iG-27" value="" style="endArrow=none;html=1;rounded=0;entryX=0.511;entryY=0.627;entryDx=0;entryDy=0;entryPerimeter=0;" parent="1" target="8lqG5mRK_3kb5YTH3_iG-28" edge="1">
          <mxGeometry width="50" height="50" relative="1" as="geometry">
            <mxPoint x="560" y="240" as="sourcePoint" />
            <mxPoint x="560" y="220" as="targetPoint" />
          </mxGeometry>
        </mxCell>
        <mxCell id="8lqG5mRK_3kb5YTH3_iG-29" value="" style="endArrow=none;html=1;rounded=0;exitDx=0;exitDy=0;startArrow=none;" parent="1" source="8lqG5mRK_3kb5YTH3_iG-28" edge="1">
          <mxGeometry width="50" height="50" relative="1" as="geometry">
            <mxPoint x="540" y="175" as="sourcePoint" />
            <mxPoint x="570" y="175" as="targetPoint" />
          </mxGeometry>
        </mxCell>
        <mxCell id="8lqG5mRK_3kb5YTH3_iG-28" value="" style="shape=waypoint;sketch=0;fillStyle=solid;size=6;pointerEvents=1;points=[];fillColor=none;resizable=0;rotatable=0;perimeter=centerPerimeter;snapToPoint=1;" parent="1" vertex="1">
          <mxGeometry x="550" y="155" width="40" height="40" as="geometry" />
        </mxCell>
        <mxCell id="8lqG5mRK_3kb5YTH3_iG-30" value="" style="endArrow=none;html=1;rounded=0;exitX=1;exitY=0.5;exitDx=0;exitDy=0;" parent="1" source="UdV3pHExxaVHsLQPr3IR-7" target="8lqG5mRK_3kb5YTH3_iG-28" edge="1">
          <mxGeometry width="50" height="50" relative="1" as="geometry">
            <mxPoint x="540" y="175" as="sourcePoint" />
            <mxPoint x="570" y="175" as="targetPoint" />
          </mxGeometry>
        </mxCell>
        <mxCell id="8lqG5mRK_3kb5YTH3_iG-31" value="John Snow (Aegon Targaryen)" style="rounded=0;whiteSpace=wrap;html=1;fillColor=#d5e8d4;strokeColor=#82b366;" parent="1" vertex="1">
          <mxGeometry x="510" y="240" width="120" height="40" as="geometry" />
        </mxCell>
        <mxCell id="8lqG5mRK_3kb5YTH3_iG-32" value="Elia Targaryen" style="rounded=0;whiteSpace=wrap;html=1;fillColor=#f8cecc;strokeColor=#b85450;" parent="1" vertex="1">
          <mxGeometry x="760" y="160" width="100" height="30" as="geometry" />
        </mxCell>
        <mxCell id="8lqG5mRK_3kb5YTH3_iG-33" value="" style="endArrow=none;html=1;rounded=0;exitDx=0;exitDy=0;entryX=0;entryY=0.5;entryDx=0;entryDy=0;startArrow=none;" parent="1" source="8lqG5mRK_3kb5YTH3_iG-34" target="8lqG5mRK_3kb5YTH3_iG-32" edge="1">
          <mxGeometry width="50" height="50" relative="1" as="geometry">
            <mxPoint x="870" y="260" as="sourcePoint" />
            <mxPoint x="920" y="210" as="targetPoint" />
          </mxGeometry>
        </mxCell>
        <mxCell id="8lqG5mRK_3kb5YTH3_iG-34" value="" style="shape=waypoint;sketch=0;fillStyle=solid;size=6;pointerEvents=1;points=[];fillColor=none;resizable=0;rotatable=0;perimeter=centerPerimeter;snapToPoint=1;" parent="1" vertex="1">
          <mxGeometry x="710" y="155" width="40" height="40" as="geometry" />
        </mxCell>
        <mxCell id="8lqG5mRK_3kb5YTH3_iG-35" value="" style="endArrow=none;html=1;rounded=0;exitX=1;exitY=0.5;exitDx=0;exitDy=0;entryDx=0;entryDy=0;" parent="1" source="8lqG5mRK_3kb5YTH3_iG-16" target="8lqG5mRK_3kb5YTH3_iG-34" edge="1">
          <mxGeometry width="50" height="50" relative="1" as="geometry">
            <mxPoint x="710" y="175" as="sourcePoint" />
            <mxPoint x="740" y="175" as="targetPoint" />
          </mxGeometry>
        </mxCell>
        <mxCell id="8lqG5mRK_3kb5YTH3_iG-36" value="Rhaenys Targaryen" style="rounded=0;whiteSpace=wrap;html=1;fillColor=#f8cecc;strokeColor=#b85450;" parent="1" vertex="1">
          <mxGeometry x="700" y="240" width="100" height="30" as="geometry" />
        </mxCell>
        <mxCell id="8lqG5mRK_3kb5YTH3_iG-37" value="Aegon Targaryen" style="rounded=0;whiteSpace=wrap;html=1;fillColor=#d5e8d4;strokeColor=#82b366;" parent="1" vertex="1">
          <mxGeometry x="820" y="240" width="100" height="30" as="geometry" />
        </mxCell>
        <mxCell id="8lqG5mRK_3kb5YTH3_iG-38" value="" style="endArrow=none;html=1;rounded=0;entryX=0.5;entryY=0;entryDx=0;entryDy=0;" parent="1" source="8lqG5mRK_3kb5YTH3_iG-34" target="8lqG5mRK_3kb5YTH3_iG-36" edge="1">
          <mxGeometry width="50" height="50" relative="1" as="geometry">
            <mxPoint x="820" y="260" as="sourcePoint" />
            <mxPoint x="870" y="210" as="targetPoint" />
          </mxGeometry>
        </mxCell>
        <mxCell id="8lqG5mRK_3kb5YTH3_iG-39" value="" style="endArrow=none;html=1;rounded=0;exitX=0.523;exitY=0.433;exitDx=0;exitDy=0;exitPerimeter=0;" parent="1" source="8lqG5mRK_3kb5YTH3_iG-34" target="8lqG5mRK_3kb5YTH3_iG-37" edge="1">
          <mxGeometry width="50" height="50" relative="1" as="geometry">
            <mxPoint x="820" y="260" as="sourcePoint" />
            <mxPoint x="870" y="210" as="targetPoint" />
          </mxGeometry>
        </mxCell>
        <mxCell id="PD4fau1pm3cW0iCwVdT0-2" value="Male" style="rounded=0;whiteSpace=wrap;html=1;fillColor=#d5e8d4;strokeColor=#82b366;" vertex="1" parent="1">
          <mxGeometry x="110" y="450" width="100" height="30" as="geometry" />
        </mxCell>
        <mxCell id="PD4fau1pm3cW0iCwVdT0-3" value="Female" style="rounded=0;whiteSpace=wrap;html=1;fillColor=#f8cecc;strokeColor=#b85450;" vertex="1" parent="1">
          <mxGeometry x="250" y="450" width="100" height="30" as="geometry" />
        </mxCell>
      </root>
    </mxGraphModel>
  </diagram>
</mxfile>
